<svg width="32" height="32" viewBox="0 0 32 32" fill="none" xmlns="http://www.w3.org/2000/svg">
<path opacity="0.2" d="M28.7626 13.595L24.7813 11.3275C24.7013 11.1825 24.6176 11.0412 24.5313 10.9012L24.5163 6.40125C23.2581 5.33939 21.8106 4.5247 20.2501 4L16.2501 6.23625C16.0826 6.23625 15.9138 6.23625 15.7501 6.23625L11.7501 4C10.19 4.52641 8.74334 5.34281 7.48631 6.40625L7.46631 10.9062C7.37881 11.0463 7.29506 11.1888 7.21631 11.3325L3.23631 13.595C2.92253 15.1821 2.92253 16.8154 3.23631 18.4025L7.21756 20.67C7.29756 20.815 7.38131 20.9563 7.46756 21.0963L7.48256 25.5963C8.74097 26.6591 10.1889 27.4747 11.7501 28L15.7501 25.7663C15.9176 25.7663 16.0863 25.7663 16.2501 25.7663L20.2501 28C21.8088 27.4732 23.2542 26.6568 24.5101 25.5938L24.5301 21.0938C24.6176 20.9537 24.7013 20.8112 24.7801 20.6675L28.7601 18.405C29.075 16.8172 29.0758 15.1831 28.7626 13.595ZM16.0001 21C15.0112 21 14.0445 20.7068 13.2222 20.1573C12.4 19.6079 11.7591 18.827 11.3807 17.9134C11.0022 16.9998 10.9032 15.9945 11.0961 15.0245C11.2891 14.0546 11.7653 13.1637 12.4645 12.4645C13.1638 11.7652 14.0547 11.289 15.0246 11.0961C15.9945 10.9031 16.9999 11.0022 17.9135 11.3806C18.8271 11.759 19.608 12.3999 20.1574 13.2221C20.7068 14.0444 21.0001 15.0111 21.0001 16C21.0001 17.3261 20.4733 18.5979 19.5356 19.5355C18.5979 20.4732 17.3261 21 16.0001 21Z" fill="white"/>
<path d="M16.0002 10.0001C14.8135 10.0001 13.6535 10.352 12.6668 11.0113C11.6801 11.6706 10.9111 12.6077 10.457 13.704C10.0028 14.8004 9.88401 16.0068 10.1155 17.1707C10.347 18.3346 10.9185 19.4037 11.7576 20.2428C12.5967 21.0819 13.6658 21.6533 14.8297 21.8849C15.9936 22.1164 17.2 21.9975 18.2963 21.5434C19.3927 21.0893 20.3298 20.3203 20.9891 19.3336C21.6483 18.3469 22.0002 17.1868 22.0002 16.0001C21.9986 14.4093 21.3659 12.8842 20.2411 11.7593C19.1162 10.6345 17.591 10.0018 16.0002 10.0001ZM16.0002 20.0001C15.2091 20.0001 14.4358 19.7655 13.778 19.326C13.1202 18.8865 12.6075 18.2618 12.3047 17.5309C12.002 16.8 11.9228 15.9957 12.0771 15.2198C12.2314 14.4439 12.6124 13.7311 13.1718 13.1717C13.7312 12.6123 14.444 12.2313 15.2199 12.077C15.9958 11.9227 16.8001 12.0019 17.531 12.3046C18.2619 12.6074 18.8866 13.1201 19.3261 13.7779C19.7656 14.4357 20.0002 15.209 20.0002 16.0001C20.0002 17.061 19.5788 18.0784 18.8287 18.8286C18.0785 19.5787 17.0611 20.0001 16.0002 20.0001ZM29.7427 13.4014C29.7149 13.2606 29.657 13.1274 29.5731 13.0109C29.4892 12.8945 29.3812 12.7974 29.2565 12.7264L25.5277 10.6014L25.5127 6.39889C25.5123 6.25416 25.4804 6.11125 25.4193 5.98003C25.3583 5.84882 25.2694 5.73242 25.159 5.63889C23.8064 4.49476 22.2488 3.61797 20.569 3.05514C20.4367 3.01036 20.2965 2.99379 20.1574 3.0065C20.0184 3.0192 19.8835 3.06089 19.7615 3.12889L16.0002 5.23139L12.2352 3.12514C12.1132 3.05676 11.9781 3.01475 11.8388 3.00183C11.6995 2.98891 11.559 3.00537 11.4265 3.05014C9.7477 3.61659 8.19179 4.49677 6.84149 5.64389C6.7312 5.73729 6.64246 5.85348 6.58139 5.98446C6.52032 6.11545 6.48837 6.25812 6.48774 6.40264L6.46899 10.6089L2.74024 12.7339C2.61549 12.8049 2.50749 12.902 2.42359 13.0184C2.33969 13.1349 2.28184 13.2681 2.25399 13.4089C1.91273 15.1237 1.91273 16.889 2.25399 18.6039C2.28184 18.7447 2.33969 18.8779 2.42359 18.9944C2.50749 19.1108 2.61549 19.2079 2.74024 19.2789L6.46899 21.4039L6.48399 25.6076C6.48444 25.7524 6.51631 25.8953 6.57738 26.0265C6.63846 26.1577 6.72729 26.2741 6.83774 26.3676C8.19033 27.5118 9.74793 28.3886 11.4277 28.9514C11.56 28.9962 11.7002 29.0127 11.8393 29C11.9784 28.9873 12.1133 28.9456 12.2352 28.8776L16.0002 26.7689L19.7652 28.8751C19.9142 28.9582 20.0822 29.0012 20.2527 29.0001C20.362 29.0001 20.4704 28.9824 20.574 28.9476C22.2524 28.3814 23.8082 27.5022 25.159 26.3564C25.2693 26.263 25.358 26.1468 25.4191 26.0158C25.4802 25.8848 25.5121 25.7422 25.5127 25.5976L25.5315 21.3914L29.2602 19.2664C29.385 19.1954 29.493 19.0983 29.5769 18.9819C29.6608 18.8654 29.7186 18.7322 29.7465 18.5914C30.0858 16.8779 30.0846 15.1144 29.7427 13.4014ZM27.8677 17.7651L24.2965 19.7964C24.14 19.8854 24.0105 20.0149 23.9215 20.1714C23.849 20.2964 23.7727 20.4289 23.6952 20.5539C23.596 20.7115 23.5432 20.8939 23.5427 21.0801L23.524 25.1114C22.5641 25.8652 21.4947 26.468 20.3527 26.8989L16.7502 24.8914C16.6007 24.8086 16.4324 24.7656 16.2615 24.7664H16.2377C16.0865 24.7664 15.934 24.7664 15.7827 24.7664C15.6039 24.762 15.427 24.8052 15.2702 24.8914L11.6652 26.9039C10.5209 26.4763 9.44852 25.8765 8.48524 25.1251L8.47149 21.1001C8.47087 20.9135 8.41805 20.7308 8.31899 20.5726C8.24149 20.4476 8.16524 20.3226 8.09399 20.1901C8.00564 20.0312 7.8761 19.8991 7.71899 19.8076L4.14399 17.7714C3.95899 16.6012 3.95899 15.4091 4.14399 14.2389L7.70899 12.2039C7.86546 12.1149 7.99502 11.9854 8.08399 11.8289C8.15649 11.7039 8.23274 11.5714 8.31024 11.4464C8.40944 11.2888 8.46229 11.1064 8.46274 10.9201L8.48149 6.88889C9.4414 6.13507 10.5108 5.53229 11.6527 5.10139L15.2502 7.10889C15.4068 7.19568 15.5838 7.23884 15.7627 7.23389C15.914 7.23389 16.0665 7.23389 16.2177 7.23389C16.3967 7.23884 16.5737 7.19568 16.7302 7.10889L20.3352 5.09639C21.4796 5.52398 22.552 6.12381 23.5152 6.87514L23.529 10.9001C23.5296 11.0868 23.5824 11.2695 23.6815 11.4276C23.759 11.5526 23.8352 11.6776 23.9065 11.8101C23.9948 11.969 24.1244 12.1012 24.2815 12.1926L27.8565 14.2289C28.044 15.4 28.0461 16.5934 27.8627 17.7651H27.8677Z" fill="white"/>
</svg>
